<svg width="889" height="889" viewBox="0 0 889 889" fill="none" xmlns="http://www.w3.org/2000/svg">
<path d="M90.8202 477.446C90.8202 477.446 94.9629 605.747 202.07 691.251C309.176 776.755 457.55 782.889 577.69 791.014C697.829 799.14 790.108 731.114 804.012 628.31C817.916 525.506 726.117 495.333 676.316 378.305C626.514 261.277 630.941 222.801 525.559 150.828C420.177 78.8543 255.303 123.055 168.91 246.36C82.5169 369.664 90.8202 477.446 90.8202 477.446Z" fill="#A97E00"/>
<path opacity="0.7" d="M90.8202 477.446C90.8202 477.446 94.963 605.747 202.07 691.251C309.176 776.755 457.55 782.889 577.69 791.014C697.829 799.14 790.108 731.114 804.012 628.31C817.916 525.506 726.117 495.333 676.316 378.305C626.514 261.277 630.941 222.801 525.559 150.828C420.177 78.8543 255.303 123.055 168.91 246.36C82.5169 369.664 90.8202 477.446 90.8202 477.446Z" fill="white"/>
<path d="M779.884 503.458H76.3473" stroke="#263238" stroke-width="1.08162" stroke-miterlimit="10"/>
<path d="M205.395 298.42C205.395 293.53 207.653 289.938 212.738 289.938C217.823 289.938 220.17 293.494 220.17 298.42V315.595C220.17 320.485 217.912 324.076 212.738 324.076C207.564 324.076 205.395 320.52 205.395 315.595V298.42ZM207.599 315.737C207.599 319.293 209.039 322.067 212.738 322.067C216.436 322.067 217.965 319.382 217.965 315.737V298.277C217.965 294.721 216.471 291.948 212.738 291.948C209.004 291.948 207.599 294.632 207.599 298.277V315.737Z" fill="#263238"/>
<path d="M223.672 298.42C223.672 293.53 225.931 289.938 230.998 289.938C236.065 289.938 238.43 293.494 238.43 298.42V315.595C238.43 320.485 236.19 324.076 230.998 324.076C225.806 324.076 223.672 320.52 223.672 315.595V298.42ZM225.877 315.737C225.877 319.293 227.317 322.067 230.998 322.067C234.678 322.067 236.225 319.382 236.225 315.737V298.277C236.225 294.721 234.749 291.948 230.998 291.948C227.246 291.948 225.877 294.632 225.877 298.277V315.737Z" fill="#263238"/>
<path d="M249.027 290.223C254.218 290.223 256.228 293.494 256.228 298.384V302.029C256.228 307.363 253.774 309.977 248.458 309.977H244.279V323.792H242.075V290.223H249.027ZM248.458 308.003C252.334 308.003 254.023 306.225 254.023 302.207V298.277C254.023 294.632 252.778 292.285 249.027 292.285H244.279V308.003H248.458Z" fill="#263238"/>
<path d="M273.688 298.331V299.042H271.572V298.188C271.572 294.632 270.238 291.948 266.593 291.948C262.948 291.948 261.597 294.597 261.597 298.135C261.597 306.296 273.723 306.438 273.723 315.684C273.723 320.52 271.625 324.076 266.487 324.076C261.348 324.076 259.25 320.52 259.25 315.684V313.906H261.366V315.684C261.366 319.24 262.753 321.871 266.451 321.871C270.149 321.871 271.518 319.275 271.518 315.684C271.518 307.63 259.392 307.487 259.392 298.135C259.392 293.103 261.597 289.85 266.504 289.796C271.412 289.743 273.688 293.494 273.688 298.331Z" fill="#263238"/>
<path d="M279.146 319.578V323.792H276.995V319.578H279.146Z" fill="#263238"/>
<path d="M285.191 319.578V323.792H283.04V319.578H285.191Z" fill="#263238"/>
<path d="M291.183 319.578V323.792H289.032V319.578H291.183Z" fill="#263238"/>
<path d="M126.7 438.579L164.483 349.235H187.152V438.579H196.967V457.462H187.152V481.447H166.741V457.462H126.7V438.579ZM166.741 438.579V388.902L145.796 438.579H166.741Z" fill="#263238"/>
<path d="M204.719 380.954C204.719 359.814 215.867 347.723 236.261 347.723C256.654 347.723 267.802 359.814 267.802 380.954V449.71C267.802 470.868 256.654 482.958 236.261 482.958C215.867 482.958 204.719 470.868 204.719 449.71V380.954ZM225.486 451.043C225.486 460.484 229.647 464.076 236.261 464.076C242.875 464.076 247.035 460.52 247.035 451.043V379.639C247.035 370.197 242.875 366.606 236.261 366.606C229.647 366.606 225.486 370.162 225.486 379.639V451.043Z" fill="#263238"/>
<path d="M276.301 438.579L314.084 349.235H336.753V438.579H346.568V457.462H336.753V481.447H316.342V457.462H276.301V438.579ZM316.342 438.579V388.902L295.379 438.579H316.342Z" fill="#263238"/>
<path d="M135.804 513.202C140.889 513.202 142.916 516.402 142.916 521.185V524.741C142.916 529.951 140.515 532.547 135.306 532.547H131.216V546.059H128.994V513.202H135.804ZM135.252 530.591C139.057 530.591 140.693 528.813 140.693 524.901V521.043C140.693 517.487 139.484 515.176 135.804 515.176H131.163V530.591H135.252Z" fill="#263238"/>
<path d="M148.641 538.734L146.987 546.006H145.031L152.143 513.077H155.291L162.616 546.006H160.518L158.882 538.734H148.641ZM148.961 536.849H158.544L153.708 515.513L148.961 536.849Z" fill="#263238"/>
<path d="M179.987 521.238V523.674H177.907V521.096C177.907 517.54 176.555 514.891 172.928 514.891C169.301 514.891 167.95 517.576 167.95 521.096V538.201C167.95 541.757 169.319 544.352 172.928 544.352C176.538 544.352 177.907 541.721 177.907 538.201V531.089H173.551V529.133H179.987V538.023C179.987 542.77 177.907 546.326 172.875 546.326C167.843 546.326 165.763 542.77 165.763 538.023V521.203C165.763 516.456 167.825 512.882 172.875 512.882C177.924 512.882 179.987 516.491 179.987 521.238Z" fill="#263238"/>
<path d="M194.727 528.422V530.395H185.837V544.068H196.629V546.024H183.667V513.202H196.629V515.176H185.837V528.422H194.727Z" fill="#263238"/>
<path d="M209.342 546.077H207.368V513.202H210.195L220.063 540.957V513.202H222.037V546.077H219.636L209.342 516.776V546.077Z" fill="#263238"/>
<path d="M225.61 521.239C225.61 516.438 227.815 512.917 232.722 512.917C237.63 512.917 239.994 516.473 239.994 521.239V538.058C239.994 542.841 237.79 546.362 232.722 546.362C227.655 546.362 225.61 542.806 225.61 538.058V521.239ZM227.762 538.201C227.762 541.757 229.166 544.388 232.794 544.388C236.421 544.388 237.914 541.757 237.914 538.201V521.096C237.914 517.54 236.456 514.891 232.794 514.891C229.131 514.891 227.762 517.522 227.762 521.096V538.201Z" fill="#263238"/>
<path d="M249.187 546.077V515.176H242.519V513.202H258.059V515.176H251.356V546.077H249.187Z" fill="#263238"/>
<path d="M278.702 529.222V531.195H270.256V546.077H268.105V513.202H280.551V515.176H270.256V529.222H278.702Z" fill="#263238"/>
<path d="M283.68 521.239C283.68 516.438 285.885 512.917 290.792 512.917C295.699 512.917 298.082 516.473 298.082 521.239V538.058C298.082 542.841 295.859 546.362 290.792 546.362C285.725 546.362 283.68 542.806 283.68 538.058V521.239ZM285.831 538.201C285.831 541.757 287.254 544.388 290.863 544.388C294.472 544.388 295.984 541.757 295.984 538.201V521.096C295.984 517.54 294.526 514.891 290.863 514.891C287.2 514.891 285.831 517.522 285.831 521.096V538.201Z" fill="#263238"/>
<path d="M303.789 538.147C303.789 541.703 305.105 544.388 308.714 544.388C312.324 544.388 313.657 541.668 313.657 538.147V513.255H315.666V538.147C315.666 542.841 313.693 546.45 308.679 546.45C303.665 546.45 301.567 542.895 301.567 538.147V513.255H303.736L303.789 538.147Z" fill="#263238"/>
<path d="M321.356 546.077H319.382V513.202H322.209L332.077 540.957V513.202H334.051V546.077H331.65L321.356 516.776V546.077Z" fill="#263238"/>
<path d="M344.932 513.202C350.017 513.202 352.222 516.545 352.222 521.381V537.916C352.222 542.752 350.017 546.077 344.932 546.077H337.82V513.202H344.932ZM344.932 544.068C348.595 544.068 350.088 541.561 350.088 537.952V521.221C350.088 517.665 348.541 515.122 344.932 515.122H339.9V544.068H344.932Z" fill="#263238"/>
<path d="M739.043 146.045C739.043 146.045 739.043 137.262 726.757 124.993C714.471 112.725 706.577 105.684 706.577 105.684C706.577 105.684 700.443 125.865 711.911 138.151C720.286 146.769 729.362 154.679 739.043 161.798V146.045Z" fill="#FFA800"/>
<path d="M721.21 200.914C721.21 200.914 721.21 192.131 708.942 179.862C696.674 167.594 688.762 160.553 688.762 160.553C688.762 160.553 682.628 180.734 694.096 193.02C702.484 201.656 711.577 209.578 721.281 216.703L721.21 200.914Z" fill="#FFA800"/>
<path d="M738.261 160.98C738.261 160.98 739.204 152.25 752.699 141.333C766.194 130.416 774.799 124.282 774.799 124.282C774.799 124.282 778.764 144.996 766.14 156.002C756.888 163.704 747.01 170.621 736.608 176.68L738.261 160.98Z" fill="#FFA800"/>
<path d="M716.73 225.682C716.73 225.682 718.508 217.094 733.158 207.653C747.809 198.211 756.93 193.02 756.93 193.02C756.93 193.02 758.708 214.036 744.982 223.655C734.968 230.345 724.411 236.186 713.423 241.115L716.73 225.682Z" fill="#FFA800"/>
<path d="M720.784 296.215C720.784 296.215 720.783 287.431 733.069 275.163C745.355 262.895 753.232 255.854 753.232 255.854C753.232 255.854 759.384 276.035 747.898 288.32C739.51 296.957 730.417 304.878 720.712 312.003L720.784 296.215Z" fill="#FFA800"/>
<path d="M720.588 313.426C720.588 313.426 721.833 304.749 711.413 290.845C700.994 276.941 694.185 268.869 694.185 268.869C694.185 268.869 685.295 287.965 694.789 301.744C701.857 311.486 709.726 320.621 718.312 329.054L720.588 313.426Z" fill="#FFA800"/>
<path d="M708.48 364.49C708.48 364.49 708.48 355.724 720.748 343.438C733.016 331.152 740.928 324.129 740.928 324.129C740.928 324.129 747.062 344.31 735.594 356.596C727.212 365.238 718.118 373.16 708.409 380.279L708.48 364.49Z" fill="#FFA800"/>
<path d="M716.676 410.718C716.676 410.718 714.454 402.219 723.219 387.231C731.985 372.242 737.87 363.459 737.87 363.459C737.87 363.459 748.911 381.417 740.999 396.192C735.067 406.67 728.276 416.637 720.694 425.991L716.676 410.718Z" fill="#FFA800"/>
<path d="M740.146 143.787C739.53 152.922 738.408 162.015 736.785 171.026C731.932 196.113 719.805 212.293 714.952 234.945C710.098 257.597 724.019 286.774 720.286 315.879C716.552 344.985 705.244 361.147 708.48 380.581C711.716 400.014 728.696 452.572 728.696 452.572" stroke="#263238" stroke-width="1.08162" stroke-linecap="round" stroke-linejoin="round"/>
<path d="M738.155 166.812L751.383 156.66" stroke="#263238" stroke-width="1.08162" stroke-linecap="round" stroke-linejoin="round"/>
<path d="M738.759 155.113L733.229 145.263" stroke="#263238" stroke-width="1.08162" stroke-linecap="round" stroke-linejoin="round"/>
<path d="M715.681 233.896C715.681 233.896 726.758 225.593 738.155 217.289" stroke="#263238" stroke-width="1.08162" stroke-linecap="round" stroke-linejoin="round"/>
<path d="M721.21 216.614C721.21 216.614 711.982 198.514 701.528 186.512" stroke="#263238" stroke-width="1.08162" stroke-linecap="round" stroke-linejoin="round"/>
<path d="M721.228 308.696C727.567 297.033 735.569 286.354 744.982 276.995" stroke="#263238" stroke-width="1.08162" stroke-linecap="round" stroke-linejoin="round"/>
<path d="M719.059 321C715.7 313.087 711.685 305.468 707.057 298.224C700.603 288.676 699.679 287.449 699.679 287.449" stroke="#263238" stroke-width="1.08162" stroke-linecap="round" stroke-linejoin="round"/>
<path d="M708.48 380.581C711.28 373.607 714.615 366.861 718.454 360.401C722.286 354.409 726.609 348.748 731.38 343.474" stroke="#263238" stroke-width="1.08162" stroke-linecap="round" stroke-linejoin="round"/>
<path d="M720.677 425.991C720.035 419.334 721.176 412.627 723.984 406.557C728.607 397.667 733.834 385.933 735.986 381.328" stroke="#263238" stroke-width="1.08162" stroke-linecap="round" stroke-linejoin="round"/>
<path d="M658.625 263.144C658.625 263.144 657.665 257.65 664.048 248.618C670.431 239.585 674.591 234.394 674.591 234.394C674.591 234.394 680.636 246.377 674.822 255.321C670.501 261.645 665.654 267.593 660.332 273.101L658.625 263.144Z" fill="#FFA800"/>
<path d="M675.747 295.646C675.747 295.646 674.787 290.134 681.17 281.102C687.553 272.07 691.713 266.878 691.713 266.878C691.713 266.878 697.758 278.862 691.944 287.805C687.623 294.129 682.776 300.077 677.454 305.585L675.747 295.646Z" fill="#FFA800"/>
<path d="M660.723 272.514C660.723 272.514 659.194 267.18 649.539 261.757C639.885 256.334 633.839 253.454 633.839 253.454C633.839 253.454 633.59 266.878 642.729 272.407C649.368 276.234 656.314 279.499 663.496 282.169L660.723 272.514Z" fill="#FFA800"/>
<path d="M681.259 310.741C681.259 310.741 679.178 305.567 669.008 301.229C658.838 296.89 652.508 294.632 652.508 294.632C652.508 294.632 653.682 308.003 663.319 312.537C670.328 315.641 677.584 318.157 685.01 320.058L681.259 310.741Z" fill="#FFA800"/>
<path d="M686.308 355.404C686.308 355.404 685.348 349.91 676.316 343.545C667.283 337.18 661.576 333.624 661.576 333.624C661.576 333.624 659.905 346.941 668.386 353.413C674.566 357.91 681.108 361.888 687.944 365.308L686.308 355.404Z" fill="#FFA800"/>
<path d="M688.37 366.268C688.37 366.268 686.592 360.934 691.66 351.119C696.727 341.305 700.087 335.473 700.087 335.473C700.087 335.473 707.768 346.479 703.27 356.151C699.896 363.029 695.953 369.613 691.482 375.834L688.37 366.268Z" fill="#FFA800"/>
<path d="M703.786 410.558C703.786 410.558 704.426 405.011 713.085 398.112C721.744 391.213 727.309 387.444 727.309 387.444C727.309 387.444 729.727 400.655 721.619 407.589C715.694 412.442 709.372 416.79 702.719 420.586L703.786 410.558Z" fill="#FFA800"/>
<path d="M701.51 396.867C701.51 396.867 700.55 391.373 691.518 384.99C682.485 378.607 676.778 375.087 676.778 375.087C676.778 375.087 675.107 388.404 683.588 394.876C689.768 399.373 696.31 403.351 703.146 406.771L701.51 396.867Z" fill="#FFA800"/>
<path d="M701.386 426.72C701.386 426.72 701.848 421.155 694.736 412.709C687.624 404.264 682.983 399.374 682.983 399.374C682.983 399.374 677.987 411.82 684.566 420.248C689.435 426.175 694.788 431.687 700.568 436.73L701.386 426.72Z" fill="#FFA800"/>
<path d="M657.682 261.935C659.064 267.595 660.756 273.174 662.749 278.648C668.51 293.85 677.88 302.669 683.392 316.36C688.904 330.05 683.392 349.857 688.815 367.69C694.238 385.524 703.181 394.36 703.252 406.966C703.323 419.572 698.381 454.332 698.381 454.332" stroke="#263238" stroke-width="1.08162" stroke-linecap="round" stroke-linejoin="round"/>
<path d="M661.434 276.141L652.046 271.216" stroke="#263238" stroke-width="1.08162" stroke-linecap="round" stroke-linejoin="round"/>
<path d="M659.78 268.887L662.181 262.113" stroke="#263238" stroke-width="1.08162" stroke-linecap="round" stroke-linejoin="round"/>
<path d="M682.752 315.791C682.752 315.791 674.911 311.772 666.857 307.807" stroke="#263238" stroke-width="1.08162" stroke-linecap="round" stroke-linejoin="round"/>
<path d="M677.418 305.531C679.731 298.221 682.787 291.167 686.539 284.48" stroke="#263238" stroke-width="1.08162" stroke-linecap="round" stroke-linejoin="round"/>
<path d="M687.464 363.281C682.225 356.662 676.056 350.835 669.15 345.981" stroke="#263238" stroke-width="1.08162" stroke-linecap="round" stroke-linejoin="round"/>
<path d="M690.148 370.766C691.393 365.443 693.082 360.233 695.198 355.191C698.221 348.506 698.665 347.635 698.665 347.635" stroke="#263238" stroke-width="1.08162" stroke-linecap="round" stroke-linejoin="round"/>
<path d="M702.826 416.479C705.879 412.688 709.265 409.177 712.943 405.988C715.278 404.264 717.472 402.355 719.503 400.281" stroke="#263238" stroke-width="1.08162" stroke-linecap="round" stroke-linejoin="round"/>
<path d="M703.252 406.966C700.736 402.904 697.913 399.041 694.807 395.409C691.752 392.072 688.428 388.991 684.868 386.199" stroke="#263238" stroke-width="1.08162" stroke-linecap="round" stroke-linejoin="round"/>
<path d="M700.532 436.783C700.217 432.538 698.767 428.454 696.336 424.96C692.478 419.857 687.926 413.1 686.077 410.433" stroke="#263238" stroke-width="1.08162" stroke-linecap="round" stroke-linejoin="round"/>
<path d="M740.501 514.198H686.432C685.08 514.193 683.785 513.654 682.829 512.698C681.873 511.742 681.334 510.447 681.33 509.095L673.293 448.252H753.623L745.604 509.095C745.6 510.447 745.06 511.742 744.104 512.698C743.148 513.654 741.853 514.193 740.501 514.198V514.198Z" fill="#263238"/>
<path d="M752.93 458.724H673.293C671.629 458.724 670.032 458.063 668.855 456.886C667.678 455.709 667.017 454.112 667.017 452.448V452.448C667.015 451.622 667.175 450.804 667.49 450.04C667.804 449.277 668.266 448.583 668.849 447.998C669.432 447.413 670.125 446.95 670.887 446.633C671.65 446.317 672.467 446.154 673.293 446.154H752.93C753.756 446.154 754.575 446.316 755.339 446.633C756.102 446.949 756.796 447.413 757.38 447.997C757.965 448.582 758.429 449.275 758.745 450.039C759.061 450.803 759.224 451.621 759.224 452.448V452.448C759.219 454.114 758.554 455.71 757.374 456.887C756.194 458.063 754.596 458.724 752.93 458.724V458.724Z" fill="#263238"/>
<path d="M676.209 585.478C674.786 585.48 673.386 585.121 672.141 584.432C670.896 583.744 669.847 582.75 669.092 581.544C668.338 580.337 667.903 578.959 667.829 577.538C667.756 576.117 668.045 574.701 668.67 573.423C670.291 570.177 670.611 566.434 669.563 562.96C668.515 559.486 666.18 556.544 663.034 554.736C650.481 546.699 621.287 545.419 611.063 545.579H610.921C608.695 545.601 606.552 544.737 604.963 543.178C603.374 541.619 602.47 539.493 602.449 537.267C602.427 535.041 603.291 532.898 604.85 531.31C606.409 529.721 608.535 528.816 610.761 528.795C615.046 528.706 653.006 528.404 672.066 540.601C690.86 552.638 687.944 572.089 683.765 580.713C683.081 582.136 682.009 583.339 680.672 584.181C679.336 585.024 677.789 585.473 676.209 585.478V585.478Z" fill="#263238"/>
<path d="M714.898 629.75L713.049 636.026L685.046 589.976L684.317 580.037L714.898 629.75Z" fill="white" stroke="#263238" stroke-width="1.08162" stroke-linecap="round" stroke-linejoin="round"/>
<path d="M713.049 636.026L721.797 631.706L723.362 625.714L714.898 629.75L713.049 636.026Z" fill="white" stroke="#263238" stroke-width="1.08162" stroke-linecap="round" stroke-linejoin="round"/>
<path d="M680.636 574.881L713.049 573.761L723.362 625.714L714.898 629.75L680.636 574.881Z" fill="white" stroke="#263238" stroke-width="1.08162" stroke-linecap="round" stroke-linejoin="round"/>
<path d="M676.209 577.085L708.622 631.599L697.954 636.755L650.055 597.71L676.209 577.085Z" fill="white" stroke="#263238" stroke-width="1.08162" stroke-linecap="round" stroke-linejoin="round"/>
<path d="M697.954 636.755L696.478 642.285L648.223 603.969L650.054 597.71L697.954 636.755Z" fill="white" stroke="#263238" stroke-width="1.08162" stroke-linecap="round" stroke-linejoin="round"/>
<path d="M697.954 636.755L708.622 631.599L707.164 637.129L696.478 642.285L697.954 636.755Z" fill="white" stroke="#263238" stroke-width="1.08162" stroke-linecap="round" stroke-linejoin="round"/>
<path d="M694.191 596.745C700.607 590.329 700.607 579.927 694.191 573.511C687.775 567.095 677.373 567.096 670.957 573.511C664.542 579.927 664.542 590.329 670.957 596.745C677.373 603.161 687.775 603.161 694.191 596.745Z" fill="#FFA800" stroke="#263238" stroke-width="1.08162" stroke-linecap="round" stroke-linejoin="round"/>
<path d="M336.344 629.75L338.193 636.026L366.179 589.976L366.926 580.037L336.344 629.75Z" fill="white" stroke="#263238" stroke-width="1.08162" stroke-linecap="round" stroke-linejoin="round"/>
<path d="M338.194 636.026L329.446 631.706L327.881 625.714L336.344 629.75L338.194 636.026Z" fill="white" stroke="#263238" stroke-width="1.08162" stroke-linecap="round" stroke-linejoin="round"/>
<path d="M370.606 574.881L338.194 573.761L327.881 625.714L336.344 629.75L370.606 574.881Z" fill="white" stroke="#263238" stroke-width="1.08162" stroke-linecap="round" stroke-linejoin="round"/>
<path d="M375.033 577.085L342.603 631.599L353.289 636.755L401.17 597.71L375.033 577.085Z" fill="white" stroke="#263238" stroke-width="1.08162" stroke-linecap="round" stroke-linejoin="round"/>
<path d="M353.289 636.755L354.764 642.285L403.019 603.969L401.17 597.71L353.289 636.755Z" fill="white" stroke="#263238" stroke-width="1.08162" stroke-linecap="round" stroke-linejoin="round"/>
<path d="M353.289 636.755L342.603 631.599L344.079 637.129L354.764 642.285L353.289 636.755Z" fill="white" stroke="#263238" stroke-width="1.08162" stroke-linecap="round" stroke-linejoin="round"/>
<path d="M369.717 591.061C367.982 591.068 366.286 590.537 364.865 589.54C363.444 588.544 362.366 587.131 361.781 585.497C361.196 583.863 361.132 582.087 361.598 580.415C362.064 578.743 363.037 577.257 364.383 576.161C431.094 521.879 417.51 440.926 417.368 440.108C417.036 437.944 417.563 435.735 418.837 433.954C420.111 432.172 422.031 430.96 424.187 430.574C426.343 430.189 428.564 430.662 430.376 431.892C432.188 433.122 433.447 435.011 433.885 437.157C434.543 440.873 449.283 528.724 374.98 589.176C373.494 590.39 371.636 591.055 369.717 591.061V591.061Z" fill="#263238"/>
<path d="M467.172 422.226C470.064 404.311 457.885 387.444 439.971 384.552C422.056 381.66 405.189 393.838 402.297 411.753C399.405 429.668 411.583 446.535 429.498 449.427C447.413 452.319 464.28 440.141 467.172 422.226Z" fill="#ADADAD" stroke="#263238" stroke-width="1.08162" stroke-linecap="round" stroke-linejoin="round"/>
<path d="M380.273 596.739C386.689 590.323 386.689 579.921 380.273 573.506C373.858 567.09 363.456 567.09 357.04 573.506C350.624 579.921 350.624 590.323 357.04 596.739C363.456 603.155 373.858 603.155 380.273 596.739Z" fill="#FFA800" stroke="#263238" stroke-width="1.08162" stroke-linecap="round" stroke-linejoin="round"/>
<path d="M522.714 552.3C551.515 552.3 574.863 530.521 574.863 503.654C574.863 476.788 551.515 455.008 522.714 455.008C493.913 455.008 470.565 476.788 470.565 503.654C470.565 530.521 493.913 552.3 522.714 552.3Z" fill="#ADADAD" stroke="#263238" stroke-width="1.08162" stroke-linecap="round" stroke-linejoin="round"/>
<path d="M495.546 482.869L500.418 501.876C501.857 506.579 504.908 510.625 509.035 513.301C513.162 515.977 518.1 517.113 522.981 516.509C527.856 515.9 532.361 513.59 535.701 509.986C539.041 506.383 541.003 501.716 541.241 496.809L542.201 477.642L495.546 482.869Z" fill="#263238" stroke="#263238" stroke-width="1.08162" stroke-linecap="round" stroke-linejoin="round"/>
<path d="M598.35 387.231C593.43 387.302 588.527 386.631 583.806 385.239L585.158 381.274C585.389 381.274 608.734 388.866 632.506 371.478L634.977 374.874C624.417 382.828 611.571 387.162 598.35 387.231V387.231Z" fill="#263238"/>
<path d="M624.558 418.772C605.32 390.662 583.433 392.778 583.22 392.796L582.757 388.635C583.753 388.529 607.383 386.235 628.007 416.408L624.558 418.772Z" fill="#263238"/>
<path d="M619.686 438.633C594.794 430.969 579.841 397.828 579.201 396.423L583.042 394.645C583.184 394.983 597.87 427.449 620.931 434.543L619.686 438.633Z" fill="#263238"/>
<path d="M632.63 374.305L639.351 369.824" stroke="#263238" stroke-width="1.08162" stroke-miterlimit="10"/>
<path d="M624.416 413.865L628.897 422.808" stroke="#263238" stroke-width="1.08162" stroke-miterlimit="10"/>
<path d="M616.575 435.13C620.117 436.031 623.749 436.532 627.403 436.623" stroke="#263238" stroke-width="1.08162" stroke-miterlimit="10"/>
<path d="M427.84 381.061L434.046 424.462L588.465 408.673L587.896 363.583L427.84 381.061Z" fill="white" stroke="#263238" stroke-width="1.08162" stroke-linecap="round" stroke-linejoin="round"/>
<path d="M434.045 424.462L461.658 494.337L580.57 482.496L588.465 408.673L434.045 424.462Z" fill="white" stroke="#263238" stroke-width="1.08162" stroke-linecap="round" stroke-linejoin="round"/>
<path d="M471.294 442.722L482.14 474.726C482.914 477.035 484.463 479.005 486.524 480.301C488.586 481.598 491.032 482.141 493.448 481.838L541.081 476.646C543.485 476.354 545.716 475.244 547.399 473.502C549.082 471.761 550.116 469.493 550.327 467.081L553.278 433.423C553.378 432.321 553.231 431.211 552.847 430.173C552.464 429.135 551.855 428.195 551.063 427.422C550.271 426.649 549.317 426.062 548.27 425.704C547.223 425.345 546.11 425.225 545.01 425.351L477.571 432.89C476.458 433.012 475.387 433.382 474.437 433.972C473.486 434.563 472.68 435.359 472.078 436.303C471.476 437.246 471.093 438.312 470.957 439.423C470.822 440.534 470.937 441.661 471.294 442.722V442.722Z" fill="#263238"/>
<path d="M471.294 460.306L490.959 458.564L497.2 441.62L511.886 468.023L519.354 448.34L523.088 454.581L558.719 450.332" stroke="white" stroke-width="1.08162" stroke-linecap="round" stroke-linejoin="round"/>
<path d="M471.294 442.722L482.14 474.726C482.914 477.035 484.463 479.005 486.524 480.301C488.586 481.598 491.032 482.141 493.448 481.838L541.081 476.646C543.485 476.354 545.716 475.244 547.399 473.502C549.082 471.761 550.116 469.493 550.327 467.081L553.278 433.423C553.378 432.321 553.231 431.211 552.847 430.173C552.464 429.135 551.855 428.195 551.063 427.422C550.271 426.649 549.317 426.062 548.27 425.704C547.223 425.345 546.11 425.225 545.01 425.351L477.571 432.89C476.458 433.012 475.387 433.382 474.437 433.972C473.486 434.563 472.68 435.359 472.078 436.303C471.476 437.246 471.093 438.312 470.957 439.423C470.822 440.534 470.937 441.661 471.294 442.722V442.722Z" stroke="#263238" stroke-width="1.08162" stroke-linecap="round" stroke-linejoin="round"/>
<path d="M570.542 437.708C575.315 437.708 579.184 433.839 579.184 429.067C579.184 424.295 575.315 420.426 570.542 420.426C565.77 420.426 561.901 424.295 561.901 429.067C561.901 433.839 565.77 437.708 570.542 437.708Z" fill="white" stroke="#263238" stroke-width="1.08162" stroke-linecap="round" stroke-linejoin="round"/>
<path d="M577.583 456.093C577.583 457.696 577.108 459.264 576.217 460.597C575.326 461.93 574.06 462.969 572.578 463.583C571.097 464.197 569.467 464.357 567.894 464.044C566.321 463.732 564.876 462.959 563.743 461.826C562.609 460.692 561.837 459.247 561.524 457.674C561.211 456.102 561.371 454.471 561.985 452.99C562.599 451.508 563.638 450.242 564.971 449.351C566.304 448.46 567.872 447.985 569.476 447.985C571.626 447.985 573.688 448.839 575.209 450.36C576.729 451.88 577.583 453.942 577.583 456.093V456.093Z" fill="#FFA800" stroke="#263238" stroke-width="1.08162" stroke-linecap="round" stroke-linejoin="round"/>
<path d="M465.338 438.455C465.831 440.091 465.828 441.836 465.329 443.471C464.83 445.105 463.858 446.554 462.535 447.636C461.213 448.718 459.599 449.383 457.898 449.548C456.198 449.713 454.486 449.37 452.98 448.563C451.475 447.755 450.242 446.519 449.439 445.011C448.635 443.503 448.297 441.791 448.466 440.091C448.635 438.39 449.305 436.779 450.39 435.459C451.476 434.139 452.928 433.171 454.563 432.676C455.65 432.345 456.792 432.232 457.923 432.344C459.053 432.455 460.151 432.789 461.152 433.326C462.153 433.863 463.038 434.592 463.757 435.473C464.475 436.353 465.013 437.366 465.338 438.455Z" fill="#FFA800" stroke="#263238" stroke-width="1.08162" stroke-linecap="round" stroke-linejoin="round"/>
<path d="M470.634 471.584C473.072 467.828 472.005 462.807 468.25 460.368C464.494 457.929 459.473 458.997 457.034 462.752C454.595 466.507 455.663 471.529 459.418 473.967C463.173 476.406 468.195 475.339 470.634 471.584Z" fill="white" stroke="#263238" stroke-width="1.08162" stroke-linecap="round" stroke-linejoin="round"/>
<path d="M491.386 560.39C504.073 560.39 514.358 550.471 514.358 538.236C514.358 526.001 504.073 516.082 491.386 516.082C478.699 516.082 468.414 526.001 468.414 538.236C468.414 550.471 478.699 560.39 491.386 560.39Z" fill="#FFA800" stroke="#263238" stroke-width="1.08162" stroke-linecap="round" stroke-linejoin="round"/>
<path d="M457.604 587.949L478.638 540.725C479.54 538.697 481.156 537.071 483.178 536.156C485.201 535.242 487.489 535.102 489.608 535.765C491.794 536.435 493.645 537.907 494.789 539.886C495.934 541.865 496.287 544.204 495.778 546.433L481.927 608.52L457.604 587.949Z" fill="#263238" stroke="#263238" stroke-width="1.08162" stroke-linecap="round" stroke-linejoin="round"/>
<path d="M450.581 515.62L496.507 623.705L441.389 631.279C441.389 631.279 408.424 597.764 386.271 534.005L450.581 515.62Z" fill="#ADADAD" stroke="#263238" stroke-width="1.08162" stroke-linecap="round" stroke-linejoin="round"/>
<path d="M450.581 515.531L452.732 505.272L498.676 615.508L496.507 623.616L450.581 515.531Z" fill="white" stroke="#263238" stroke-width="1.08162" stroke-linecap="round" stroke-linejoin="round"/>
<path d="M452.732 505.272L390.058 524.172L386.271 533.916L450.581 515.531L452.732 505.272Z" fill="white" stroke="#263238" stroke-width="1.08162" stroke-linecap="round" stroke-linejoin="round"/>
<path d="M390.591 544.175L453.817 524.723" stroke="#263238" stroke-width="1.08162" stroke-linecap="round" stroke-linejoin="round"/>
<path d="M395.445 555.518L459.222 538.236" stroke="#263238" stroke-width="1.08162" stroke-linecap="round" stroke-linejoin="round"/>
<path d="M400.317 567.413L464.627 550.131" stroke="#263238" stroke-width="1.08162" stroke-linecap="round" stroke-linejoin="round"/>
<path d="M407.34 582.01L470.032 563.626" stroke="#263238" stroke-width="1.08162" stroke-linecap="round" stroke-linejoin="round"/>
<path d="M413.99 593.603L476.522 577.139" stroke="#263238" stroke-width="1.08162" stroke-linecap="round" stroke-linejoin="round"/>
<path d="M420.853 604.2L481.927 589.567" stroke="#263238" stroke-width="1.08162" stroke-linecap="round" stroke-linejoin="round"/>
<path d="M428.765 614.388L485.696 600.928" stroke="#263238" stroke-width="1.08162" stroke-linecap="round" stroke-linejoin="round"/>
<path d="M434.365 622.709L490.924 613.357" stroke="#263238" stroke-width="1.08162" stroke-linecap="round" stroke-linejoin="round"/>
<path d="M552.567 560.39C565.254 560.39 575.539 550.471 575.539 538.236C575.539 526.001 565.254 516.082 552.567 516.082C539.88 516.082 529.595 526.001 529.595 538.236C529.595 550.471 539.88 560.39 552.567 560.39Z" fill="#FFA800" stroke="#263238" stroke-width="1.08162" stroke-linecap="round" stroke-linejoin="round"/>
<path d="M586.331 587.949L565.298 540.725C564.396 538.697 562.78 537.071 560.757 536.156C558.734 535.242 556.446 535.102 554.327 535.765V535.765C552.142 536.435 550.293 537.908 549.151 539.888C548.01 541.867 547.661 544.206 548.175 546.433L562.026 608.52L586.331 587.949Z" fill="#263238" stroke="#263238" stroke-width="1.08162" stroke-linecap="round" stroke-linejoin="round"/>
<path d="M593.372 515.62L547.428 623.705L602.546 631.279C602.546 631.279 635.511 597.764 657.664 534.005L593.372 515.62Z" fill="#ADADAD" stroke="#263238" stroke-width="1.08162" stroke-linecap="round" stroke-linejoin="round"/>
<path d="M593.372 515.531L591.203 505.272L545.259 615.508L547.428 623.616L593.372 515.531Z" fill="white" stroke="#263238" stroke-width="1.08162" stroke-linecap="round" stroke-linejoin="round"/>
<path d="M591.203 505.272L653.895 524.172L657.682 533.916L593.372 515.531L591.203 505.272Z" fill="white" stroke="#263238" stroke-width="1.08162" stroke-linecap="round" stroke-linejoin="round"/>
<path d="M653.344 544.175L590.118 524.723" stroke="#263238" stroke-width="1.08162" stroke-linecap="round" stroke-linejoin="round"/>
<path d="M648.49 555.518L584.713 538.236" stroke="#263238" stroke-width="1.08162" stroke-linecap="round" stroke-linejoin="round"/>
<path d="M643.618 567.413L579.308 550.131" stroke="#263238" stroke-width="1.08162" stroke-linecap="round" stroke-linejoin="round"/>
<path d="M636.595 582.01L573.903 563.626" stroke="#263238" stroke-width="1.08162" stroke-linecap="round" stroke-linejoin="round"/>
<path d="M629.945 593.603L567.431 577.139" stroke="#263238" stroke-width="1.08162" stroke-linecap="round" stroke-linejoin="round"/>
<path d="M623.082 604.2L562.026 589.567" stroke="#263238" stroke-width="1.08162" stroke-linecap="round" stroke-linejoin="round"/>
<path d="M615.188 614.388L558.239 600.928" stroke="#263238" stroke-width="1.08162" stroke-linecap="round" stroke-linejoin="round"/>
<path d="M609.57 622.709L553.011 613.357" stroke="#263238" stroke-width="1.08162" stroke-linecap="round" stroke-linejoin="round"/>
<path d="M635.244 423.182L641.218 425.795" stroke="#263238" stroke-width="1.08162" stroke-miterlimit="10"/>
<path d="M631.51 425.422L637.484 434.757" stroke="#263238" stroke-width="1.08162" stroke-miterlimit="10"/>
<path d="M628.15 425.795L627.03 431.769" stroke="#263238" stroke-width="1.08162" stroke-miterlimit="10"/>
<path d="M642.711 386.982H657.255" stroke="#263238" stroke-width="1.08162" stroke-miterlimit="10"/>
<path d="M631.51 387.728L652.402 393.703" stroke="#263238" stroke-width="1.08162" stroke-miterlimit="10"/>
<path d="M639.351 379.905L652.775 378.038" stroke="#263238" stroke-width="1.08162" stroke-miterlimit="10"/>
<path d="M591.203 426.169L594.937 436.997" stroke="#263238" stroke-width="1.08162" stroke-miterlimit="10"/>
<path d="M596.057 425.422L606.493 442.598" stroke="#263238" stroke-width="1.08162" stroke-miterlimit="10"/>
<path d="M599.791 415.359L609.854 418.719" stroke="#263238" stroke-width="1.08162" stroke-miterlimit="10"/>
<path d="M655.389 409.758L652.028 413.421L654.464 417.759L649.93 415.679L646.57 419.341L647.139 414.398L642.623 412.318L647.494 411.34L648.081 406.397L650.517 410.736L655.389 409.758Z" fill="#FFA800" stroke="#263238" stroke-width="0.540812" stroke-linecap="round" stroke-linejoin="round"/>
<path d="M660.616 360.49L657.238 364.152L659.691 368.491L655.157 366.41L651.797 370.073L652.366 365.13L647.85 363.05L652.722 362.072L653.291 357.129L655.744 361.467L660.616 360.49Z" fill="#FFA800" stroke="#263238" stroke-width="0.540812" stroke-linecap="round" stroke-linejoin="round"/>
<path d="M606.12 446.705L602.76 450.367L605.196 454.706L600.68 452.625L597.301 456.288L597.87 451.345L593.354 449.265L598.226 448.287L598.813 443.344L601.249 447.683L606.12 446.705Z" fill="#FFA800" stroke="#263238" stroke-width="0.540812" stroke-linecap="round" stroke-linejoin="round"/>
<path d="M445.033 365.29C458.889 365.29 470.121 354.185 470.121 340.487C470.121 326.789 458.889 315.684 445.033 315.684C431.178 315.684 419.946 326.789 419.946 340.487C419.946 354.185 431.178 365.29 445.033 365.29Z" fill="#ADADAD" stroke="#263238" stroke-width="1.08162" stroke-linecap="round" stroke-linejoin="round"/>
<path d="M554.363 358.516C568.218 358.516 579.45 347.411 579.45 333.713C579.45 320.014 568.218 308.91 554.363 308.91C540.507 308.91 529.275 320.014 529.275 333.713C529.275 347.411 540.507 358.516 554.363 358.516Z" fill="#ADADAD" stroke="#263238" stroke-width="1.08162" stroke-linecap="round" stroke-linejoin="round"/>
<path d="M503.921 415.999C521.351 415.999 535.48 402.498 535.48 385.844C535.48 369.19 521.351 355.689 503.921 355.689C486.491 355.689 472.361 369.19 472.361 385.844C472.361 402.498 486.491 415.999 503.921 415.999Z" fill="#FFA800" stroke="#263238" stroke-width="1.08162" stroke-linecap="round" stroke-linejoin="round"/>
<path d="M480.825 370.357L485.181 389.489C486.482 394.23 489.417 398.36 493.468 401.148C497.518 403.936 502.423 405.203 507.317 404.726C512.208 404.251 516.775 402.068 520.216 398.559C523.656 395.05 525.75 390.441 526.128 385.541L527.604 366.41L480.825 370.357Z" fill="#263238" stroke="#263238" stroke-width="1.08162" stroke-linecap="round" stroke-linejoin="round"/>
<path d="M452.074 289.761L440.251 337.109L558.025 327.525L540.565 282.435L452.074 289.761Z" fill="white" stroke="#263238" stroke-width="1.08162" stroke-linecap="round" stroke-linejoin="round"/>
<path d="M440.251 337.109L461.089 388.955L553.527 379.941L558.025 327.525L440.251 337.109Z" fill="white" stroke="#263238" stroke-width="1.08162" stroke-linecap="round" stroke-linejoin="round"/>
<path d="M493.217 358.249C492.897 365.61 486.461 371.406 478.762 371.993C471.063 372.58 463.525 367.762 461.871 360.472C460.093 352.115 466.334 343.901 476.202 343.278C486.07 342.656 493.555 349.857 493.217 358.249Z" fill="#FFA800" stroke="#263238" stroke-width="1.08162" stroke-linecap="round" stroke-linejoin="round"/>
<path d="M487.332 358.658C487.236 360.985 486.268 363.191 484.622 364.838C482.975 366.485 480.769 367.452 478.442 367.548C476.08 367.803 473.706 367.182 471.772 365.802C469.838 364.422 468.479 362.38 467.952 360.063C467.081 355.013 471.046 350.266 476.842 349.875C478.113 349.733 479.399 349.85 480.624 350.219C481.848 350.588 482.985 351.202 483.966 352.023C484.946 352.844 485.75 353.855 486.329 354.996C486.907 356.136 487.249 357.382 487.332 358.658V358.658Z" fill="white" stroke="#263238" stroke-width="1.08162" stroke-linecap="round" stroke-linejoin="round"/>
<path d="M545.615 353.182C545.313 360.543 538.876 366.339 531.178 366.926C523.479 367.513 515.922 362.694 514.287 355.387C512.42 347.048 518.749 338.833 528.617 338.193C538.485 337.553 545.971 344.79 545.615 353.182Z" fill="#FFA800" stroke="#263238" stroke-width="1.08162" stroke-linecap="round" stroke-linejoin="round"/>
<path d="M539.73 353.591C539.638 355.919 538.671 358.127 537.024 359.775C535.376 361.423 533.168 362.389 530.84 362.481C528.476 362.731 526.102 362.106 524.168 360.723C522.235 359.34 520.876 357.296 520.349 354.978C519.478 349.928 523.443 345.199 529.239 344.808C530.511 344.66 531.8 344.774 533.026 345.141C534.253 345.508 535.392 346.121 536.374 346.943C537.355 347.765 538.159 348.778 538.736 349.921C539.313 351.064 539.651 352.313 539.73 353.591V353.591Z" fill="white" stroke="#263238" stroke-width="1.08162" stroke-linecap="round" stroke-linejoin="round"/>
<path d="M493.786 379.621C492.703 379.632 491.657 379.224 490.868 378.481C490.079 377.739 489.607 376.72 489.552 375.638C489.497 374.556 489.863 373.495 490.572 372.676C491.282 371.858 492.281 371.345 493.36 371.246L515.905 368.988C517.013 368.878 518.12 369.211 518.981 369.917C519.843 370.622 520.39 371.641 520.501 372.749C520.612 373.857 520.278 374.964 519.572 375.826C518.867 376.688 517.848 377.234 516.74 377.345L494.284 379.603L493.786 379.621Z" fill="#263238" stroke="#263238" stroke-width="1.08162" stroke-linecap="round" stroke-linejoin="round"/>
<path d="M454.243 313.052C458.947 313.052 462.76 309.239 462.76 304.536C462.76 299.832 458.947 296.019 454.243 296.019C449.54 296.019 445.727 299.832 445.727 304.536C445.727 309.239 449.54 313.052 454.243 313.052Z" fill="#FFA800" stroke="#263238" stroke-width="1.08162" stroke-linecap="round" stroke-linejoin="round"/>
<path d="M448.981 306.847C452.997 306.847 456.253 303.591 456.253 299.575C456.253 295.559 452.997 292.303 448.981 292.303C444.964 292.303 441.708 295.559 441.708 299.575C441.708 303.591 444.964 306.847 448.981 306.847Z" fill="#FFA800" stroke="#263238" stroke-width="1.08162" stroke-linecap="round" stroke-linejoin="round"/>
<path d="M447.576 291.841C447.572 292.972 447.234 294.078 446.603 295.017C445.971 295.956 445.076 296.687 444.029 297.118C442.983 297.548 441.832 297.659 440.723 297.436C439.614 297.213 438.595 296.667 437.796 295.865C436.997 295.064 436.454 294.044 436.234 292.934C436.015 291.823 436.129 290.673 436.563 289.628C436.997 288.583 437.731 287.69 438.672 287.062C439.613 286.433 440.719 286.098 441.851 286.098C442.604 286.098 443.35 286.247 444.046 286.535C444.742 286.824 445.374 287.248 445.905 287.781C446.437 288.315 446.859 288.948 447.145 289.645C447.432 290.341 447.578 291.088 447.576 291.841V291.841Z" fill="#FFA800" stroke="#263238" stroke-width="1.08162" stroke-linecap="round" stroke-linejoin="round"/>
<path d="M440.464 289.832L427.449 277.741" stroke="#263238" stroke-width="1.08162" stroke-linecap="round" stroke-linejoin="round"/>
<path d="M537.881 307.167C542.584 307.167 546.397 303.354 546.397 298.651C546.397 293.947 542.584 290.134 537.881 290.134C533.177 290.134 529.364 293.947 529.364 298.651C529.364 303.354 533.177 307.167 537.881 307.167Z" fill="#FFA800" stroke="#263238" stroke-width="1.08162" stroke-linecap="round" stroke-linejoin="round"/>
<path d="M543.144 300.962C547.16 300.962 550.416 297.706 550.416 293.69C550.416 289.674 547.16 286.418 543.144 286.418C539.127 286.418 535.872 289.674 535.872 293.69C535.872 297.706 539.127 300.962 543.144 300.962Z" fill="#FFA800" stroke="#263238" stroke-width="1.08162" stroke-linecap="round" stroke-linejoin="round"/>
<path d="M544.548 285.956C544.552 287.087 544.89 288.192 545.522 289.132C546.153 290.071 547.048 290.802 548.095 291.232C549.141 291.663 550.292 291.774 551.401 291.551C552.51 291.328 553.529 290.781 554.328 289.98C555.127 289.179 555.67 288.158 555.89 287.048C556.109 285.938 555.995 284.788 555.561 283.743C555.127 282.698 554.393 281.805 553.452 281.176C552.511 280.548 551.405 280.213 550.273 280.213C549.52 280.213 548.774 280.361 548.078 280.65C547.382 280.939 546.751 281.362 546.219 281.896C545.687 282.429 545.266 283.063 544.979 283.759C544.692 284.456 544.546 285.202 544.548 285.956V285.956Z" fill="#FFA800" stroke="#263238" stroke-width="1.08162" stroke-linecap="round" stroke-linejoin="round"/>
<path d="M551.66 283.929L564.675 271.856" stroke="#263238" stroke-width="1.08162" stroke-linecap="round" stroke-linejoin="round"/>
<path d="M532.6 596.661C532.6 600.768 529.88 604.093 526.519 604.093C523.159 604.093 520.456 600.768 520.456 596.661C520.456 592.554 523.177 589.229 526.519 589.229C529.862 589.229 532.6 592.554 532.6 596.661Z" fill="white" stroke="#263238" stroke-width="1.08162" stroke-linecap="round" stroke-linejoin="round"/>
<path d="M544.619 602.884H544.157L527.284 600.413C526.486 600.263 525.777 599.81 525.305 599.149C524.833 598.488 524.635 597.67 524.752 596.866C524.869 596.063 525.292 595.336 525.933 594.837C526.574 594.338 527.383 594.106 528.19 594.19L545.064 596.644C545.881 596.722 546.634 597.117 547.164 597.744C547.694 598.371 547.958 599.18 547.9 599.998C547.842 600.817 547.467 601.581 546.854 602.126C546.241 602.672 545.439 602.957 544.619 602.92V602.884Z" fill="white" stroke="#263238" stroke-width="1.08162" stroke-miterlimit="10"/>
<path d="M308.803 631.403C306.598 627.936 307.025 623.669 309.941 621.891C312.857 620.113 316.84 621.447 319.044 624.896C321.249 628.345 320.733 632.63 317.889 634.426C315.044 636.222 310.99 634.87 308.803 631.403Z" fill="white" stroke="#263238" stroke-width="1.08162" stroke-linecap="round" stroke-linejoin="round"/>
<path d="M295.308 632.595C295.439 632.513 295.575 632.442 295.717 632.381L311.292 625.429C312.046 625.133 312.886 625.139 313.636 625.445C314.386 625.752 314.988 626.337 315.318 627.077C315.648 627.817 315.68 628.656 315.407 629.418C315.134 630.181 314.577 630.809 313.853 631.172L298.277 638.124C297.552 638.446 296.731 638.482 295.981 638.225C295.23 637.967 294.604 637.436 294.228 636.736C293.853 636.037 293.755 635.222 293.956 634.454C294.156 633.686 294.639 633.022 295.308 632.595V632.595Z" fill="white" stroke="#263238" stroke-width="1.08162" stroke-miterlimit="10"/>
<path d="M711.751 551.749C709.546 548.282 710.062 544.032 712.889 542.237C715.716 540.441 719.788 541.792 721.993 545.242C724.197 548.691 723.682 552.976 720.855 554.772C718.028 556.567 713.938 555.216 711.751 551.749Z" fill="white" stroke="#263238" stroke-width="1.08162" stroke-linecap="round" stroke-linejoin="round"/>
<path d="M698.274 552.958L698.665 552.745L714.24 545.793C714.62 545.602 715.035 545.491 715.46 545.465C715.884 545.44 716.309 545.5 716.709 545.644C717.11 545.787 717.477 546.01 717.789 546.299C718.1 546.588 718.35 546.937 718.523 547.325C718.697 547.714 718.789 548.133 718.796 548.558C718.802 548.983 718.723 549.405 718.562 549.799C718.401 550.192 718.162 550.549 717.859 550.847C717.556 551.146 717.196 551.38 716.801 551.536L701.243 558.488C700.518 558.81 699.697 558.845 698.946 558.588C698.195 558.331 697.57 557.799 697.194 557.1C696.819 556.401 696.721 555.585 696.921 554.817C697.122 554.049 697.605 553.385 698.274 552.958V552.958Z" fill="white" stroke="#263238" stroke-width="1.08162" stroke-miterlimit="10"/>
<path d="M411.038 634.746C403.926 634.746 398.201 638.16 398.201 642.356C398.201 646.552 403.944 649.966 411.038 649.966C418.132 649.966 423.893 646.552 423.893 642.356C423.893 638.16 418.132 634.746 411.038 634.746ZM411.038 646.285C407.375 646.285 404.406 644.507 404.406 642.356C404.406 640.204 407.375 638.426 411.038 638.426C414.701 638.426 417.688 640.204 417.688 642.356C417.688 644.507 414.719 646.285 411.038 646.285Z" fill="white" stroke="#263238" stroke-width="1.08162" stroke-miterlimit="10"/>
<path d="M526.75 635.973L517.985 632.417L509.201 635.973L507.032 643.796L513.113 650.072H522.856L528.919 643.796L526.75 635.973ZM520.456 645.965H515.513L512.42 642.783L513.522 638.818L517.985 637.04L522.43 638.818L523.532 642.783L520.456 645.965Z" fill="white" stroke="#263238" stroke-width="1.08162" stroke-linecap="round" stroke-linejoin="round"/>
<path d="M693.1 522.376L684.317 518.82L675.533 522.376L673.364 530.217L679.445 536.494H689.188L695.269 530.217L693.1 522.376ZM686.788 532.387H681.845L678.769 529.204L679.854 525.221L684.317 523.443L688.78 525.221L689.882 529.204L686.788 532.387Z" fill="white" stroke="#263238" stroke-width="1.08162" stroke-linecap="round" stroke-linejoin="round"/>
<path d="M585.442 653.824C585.194 653.824 584.947 653.782 584.713 653.699C583.519 653.196 582.512 652.332 581.833 651.228C580.855 649.717 580.055 647.032 581.602 642.871C582.143 641.35 583.051 639.984 584.245 638.896C585.439 637.808 586.882 637.03 588.447 636.631C590.455 636.145 592.549 636.132 594.563 636.591C596.578 637.051 598.458 637.971 600.057 639.28C600.272 639.454 600.449 639.668 600.58 639.912C600.71 640.155 600.791 640.421 600.818 640.696C600.844 640.971 600.816 641.248 600.734 641.512C600.652 641.775 600.519 642.02 600.342 642.231C599.988 642.66 599.478 642.931 598.925 642.984C598.371 643.038 597.819 642.869 597.39 642.516C596.299 641.646 595.026 641.034 593.665 640.726C592.304 640.418 590.891 640.422 589.531 640.738C588.613 640.975 587.768 641.434 587.07 642.077C586.372 642.719 585.843 643.523 585.531 644.418C583.949 648.597 585.851 649.752 586.242 649.859C586.742 650.082 587.138 650.489 587.346 650.995C587.555 651.502 587.56 652.069 587.362 652.579C587.201 652.953 586.932 653.271 586.591 653.492C586.249 653.714 585.849 653.829 585.442 653.824Z" fill="white" stroke="#263238" stroke-width="1.08162" stroke-linecap="round" stroke-linejoin="round"/>
<path d="M628.79 661.54C628.126 661.543 627.466 661.441 626.834 661.238L592.714 650.126C591.907 649.887 591.157 649.49 590.507 648.957C589.856 648.423 589.319 647.765 588.928 647.021C588.536 646.277 588.297 645.461 588.226 644.623C588.155 643.785 588.252 642.942 588.512 642.142C588.773 641.342 589.19 640.603 589.741 639.967C590.292 639.332 590.965 638.813 591.719 638.442C592.474 638.07 593.295 637.854 594.135 637.806C594.975 637.757 595.816 637.878 596.608 638.16L630.745 649.272C632.163 649.742 633.367 650.701 634.142 651.977C634.918 653.253 635.215 654.763 634.98 656.237C634.745 657.712 633.993 659.055 632.859 660.026C631.725 660.998 630.283 661.534 628.79 661.54V661.54Z" fill="white" stroke="#263238" stroke-width="1.08162" stroke-linecap="round" stroke-linejoin="round"/>
<path d="M591.683 649.841C591.683 649.841 593.034 641.165 603.88 640.951" stroke="#263238" stroke-width="1.08162" stroke-linecap="round" stroke-linejoin="round"/>
<path d="M598.99 651.726C598.99 651.726 600.36 643.067 611.188 642.836" stroke="#263238" stroke-width="1.08162" stroke-linecap="round" stroke-linejoin="round"/>
<path d="M605.498 654.162C605.498 654.162 606.849 645.503 617.677 645.272" stroke="#263238" stroke-width="1.08162" stroke-linecap="round" stroke-linejoin="round"/>
<path d="M612.272 656.082C612.272 656.082 613.624 647.423 624.452 647.192" stroke="#263238" stroke-width="1.08162" stroke-linecap="round" stroke-linejoin="round"/>
<path d="M619.046 658.5C619.046 658.5 620.398 649.841 631.226 649.61" stroke="#263238" stroke-width="1.08162" stroke-linecap="round" stroke-linejoin="round"/>
<path d="M628.772 661.416C628.528 661.412 628.287 661.364 628.061 661.274C626.86 660.782 625.846 659.923 625.163 658.82C624.185 657.309 623.385 654.624 624.932 650.446C625.479 648.927 626.388 647.565 627.581 646.477C628.774 645.39 630.214 644.61 631.777 644.205C633.787 643.722 635.881 643.711 637.896 644.174C639.91 644.637 641.79 645.56 643.387 646.872C643.602 647.046 643.779 647.26 643.91 647.504C644.04 647.747 644.121 648.013 644.148 648.288C644.174 648.563 644.146 648.84 644.064 649.104C643.982 649.367 643.849 649.612 643.672 649.823C643.318 650.252 642.808 650.523 642.255 650.576C641.701 650.63 641.15 650.461 640.72 650.108C639.63 649.237 638.356 648.624 636.995 648.316C635.634 648.008 634.221 648.013 632.862 648.33C631.943 648.561 631.097 649.016 630.398 649.656C629.7 650.295 629.172 651.098 628.861 651.993C627.279 656.189 629.181 657.327 629.572 657.433C630.014 657.626 630.376 657.964 630.599 658.391C630.823 658.818 630.894 659.309 630.8 659.782C630.707 660.254 630.455 660.681 630.086 660.991C629.717 661.301 629.254 661.476 628.772 661.487V661.416Z" fill="white" stroke="#263238" stroke-width="1.08162" stroke-linecap="round" stroke-linejoin="round"/>
</svg>
